<?xml version="1.0" encoding="utf-8"?>
<!-- Generator: Adobe Illustrator 12.0.0, SVG Export Plug-In . SVG Version: 6.00 Build 51448)  -->
<!DOCTYPE svg PUBLIC "-//W3C//DTD SVG 1.1//EN" "http://www.w3.org/Graphics/SVG/1.1/DTD/svg11.dtd" [
	<!ENTITY ns_svg "http://www.w3.org/2000/svg">
	<!ENTITY ns_xlink "http://www.w3.org/1999/xlink">
]>
<svg  version="1.1" id="レイヤー_1" xmlns="&ns_svg;" xmlns:xlink="&ns_xlink;" width="109.703" height="114.893"
	 viewBox="0 0 109.703 114.893" overflow="visible" enable-background="new 0 0 109.703 114.893" xml:space="preserve">
<g>
	<g>
		<path fill="#8C827D" d="M36.32,59.587l0.166-0.179l2.044-2.213l0.075-0.078l1.093-1.185c0.014,0.013,0.027,0.024,0.041,0.036
			c-2.173-2.101-3.53-5.041-3.53-8.303c0-6.384,5.172-11.557,11.559-11.557c2.107-0.002,4.076,0.57,5.777,1.556l2.276-4.155l0,0
			l0.117-0.215h0.001l2.327-4.242l-0.002,0l0.124-0.227l0.001,0l2.331-4.255c0,0-0.001,0-0.002-0.001l0.124-0.227
			c0.002,0.001,0.003,0.001,0.004,0.002l1.234-2.26l0.002-0.005l0.893-1.631c-4.377-2.457-9.401-3.897-14.756-3.982h-0.507
			c-17.158,0.027-31.062,13.828-31.25,30.95l0.002,0.002v0.298c0.017,8.959,3.793,17.023,9.829,22.718l1.56-1.688l0.003-0.003
			l1.536-1.66l0-0.002l0.178-0.19c0,0,0,0,0.001,0l3.29-3.56l0,0l0.176-0.189l0,0L36.32,59.587z"/>
		<path fill="#8C827D" d="M69.502,25.323l-3.021,3.249c0,0,0,0,0.001,0l-0.178,0.19c0,0-0.001,0-0.001,0l-3.301,3.552h0.001
			l-0.175,0.189v-0.001l-3.299,3.549l0,0l-0.166,0.179l-1.218,1.31l-0.008,0.009l-2.002,2.157c1.973,2.073,3.189,4.872,3.189,7.959
			c0.001,6.382-5.174,11.559-11.555,11.559c-1.939,0-3.766-0.483-5.373-1.329h0.001l-2.321,4.13l-3.281,5.841l-1.712,3.047
			l-0.126,0.228l-2.237,3.979c4.449,2.439,9.556,3.836,14.991,3.846c17.261,0,31.258-13.997,31.258-31.252
			C78.967,38.93,75.335,31,69.502,25.323"/>
		<path fill="#8C827D" d="M47.767,45.473c-1.209,0-2.194,0.98-2.194,2.193c0,1.208,0.984,2.188,2.194,2.188
			c1.208,0,2.199-0.98,2.199-2.188C49.966,46.453,48.974,45.473,47.767,45.473"/>
	</g>
	<path fill="#8C827D" d="M47.855,47.735c-0.098,0-0.19-0.014-0.279-0.042C47.696,47.735,47.803,47.743,47.855,47.735z
		 M88.594,82.776l-2.446,2.447l-4.256-4.258c8.369-8.6,13.539-20.33,13.539-33.25C95.431,21.405,74.025,0,47.715,0
		C21.405,0,0,21.405,0,47.716c0,26.312,21.405,47.715,47.715,47.715c10.276,0,19.795-3.275,27.592-8.822l4.729,4.729l-2.445,2.446
		l21.109,21.109l11.004-11.005L88.594,82.776z M47.715,86.786c-21.543,0-39.069-17.527-39.069-39.07S26.172,8.646,47.715,8.646
		s39.07,17.526,39.07,39.069S69.258,86.786,47.715,86.786z"/>
</g>
</svg>
